<?xml version="1.0" standalone="no"?>
<!DOCTYPE svg PUBLIC "-//W3C//DTD SVG 1.1//EN" "http://www.w3.org/Graphics/SVG/1.1/DTD/svg11.dtd" >
<!--
2013-9-30: Created.
-->
<svg>
<metadata>
Created by iconfont
</metadata>
<defs>

<font id="iconfont" horiz-adv-x="1024" >
  <font-face
    font-family="iconfont"
    font-weight="500"
    font-stretch="normal"
    units-per-em="1024"
    ascent="896"
    descent="-128"
  />
    <missing-glyph />
    
    <glyph glyph-name="facebook" unicode="&#58880;" d="M876.67143111 894.30698667q30.29219555 0 57.08913778-11.65084445t46.60337778-31.45728 31.45728-46.02083555 11.65084444-56.50659556l0-729.34286222q0-30.29219555-11.65084444-56.50659556t-31.45728-46.02083555-46.60337778-31.45728-57.08913778-11.65084445l-217.87079111 0 0 436.90666667 72.23523555 0q30.29219555 0 51.84625778 21.55406222t21.55406222 51.84625778-21.55406222 51.84625778-51.84625778 21.55406222l-72.23523555 0q2.33016889 44.27320889 18.64135111 59.41930667t44.27320889 15.14609778l75.73048889 0q31.45728 0 47.76846222 22.71914666t16.31118222 50.09863111-15.72864 50.09863111-48.35100444 22.71914667l-125.82912 0q-39.61287111 0-69.32252444-13.39847111t-50.09863112-36.70016-30.29219555-53.59388444-9.90321778-65.2447289l0-51.26371555-72.23523555 0q-30.29219555 0-51.84625778-21.55406222t-21.55406222-51.84625778 21.55406222-51.84625778 51.84625778-21.55406222l72.23523555 0 0-436.90666667-364.67143111 0q-30.29219555 0-56.50659556 11.65084445t-46.02083555 31.45728-31.45728 46.02083555-11.65084445 56.50659556l0 729.34286222q0 30.29219555 11.65084445 56.50659556t31.45728 46.02083555 46.02083555 31.45728 56.50659556 11.65084445l729.34286222 0z"  horiz-adv-x="1024" />

    
    <glyph glyph-name="close" unicode="&#58950;" d="M583.18923023 382.03927967000004l416.77875601 414.61693619c19.70775301 19.60720323 19.80830276 51.38092747 0.20109952 71.08868046-19.65747811 19.75802788-51.38092747 19.80830276-71.08868046 0.20109953l-416.87930577-414.66721106-413.25951442 414.51638641C79.38465675 887.40237444 47.56065763 887.50292419 27.85290464 867.89572095 8.19542652 848.28851773 8.14515163 816.46451861 27.75235487 796.75676562l413.15896467-414.41583666L24.33366304-32.02463280999996c-19.70775301-19.60720323-19.80830276-51.38092747-0.20109953-71.08868048 9.80360162-9.85387649 22.72424581-14.83108963 35.64488999-14.83108962 12.82009443 0 25.64018885 4.87666336 35.44379047 14.6299901l416.67820627 414.46611154 417.03013042-418.28700241c9.80360162-9.85387649 22.67397092-14.78081473 35.59461513-14.78081475 12.87036929 0 25.69046372 4.92693825 35.49406535 14.68026499 19.65747811 19.60720323 19.70775301 51.38092747 0.10054975 71.08868044L583.18923023 382.03927967000004z"  horiz-adv-x="1024" />

    
    <glyph glyph-name="reddit" unicode="&#60367;" d="M625.73714301 229.15657101q9.14285699-9.14285699-3e-8-17.70057101-35.40114301-35.40114301-113.73714298-35.40114299t-113.73714301 35.40114299q-9.14285699 8.55771402 0 17.70057101 3.43771403 3.43771403 8.557714 3.437714t8.557714-3.437714q27.42857101-28.01371402 96.548571-28.013714 68.53485699 0 96.548571 28.013714 3.43771403 3.43771403 8.55771399 3.437714t8.557714-3.437714zM450.26742899 332.58057098999996q0-21.13828601-14.848-35.98628598t-35.986286-14.848-36.27885698 14.848-15.14057099 35.98628598q0 21.72342899 15.14057096 36.57142901t36.27885701 14.848 35.98628602-15.14057099 14.84799998-36.27885701zM675.98628601 332.58057098999996q0-21.13828601-15.14057102-35.98628598t-36.27885698-14.848-35.98628601 14.848-14.848 35.98628598 14.848 36.27885701 35.98628601 15.14057099 36.27885698-14.848 15.14057102-36.571429zM819.41942901 401.11542899q0 28.01371402-19.968 47.981714t-48.56685701 19.968-49.152-20.55314298q-74.31314299 51.41942901-177.73714299 54.85714298l35.986286 161.71885701 114.322286-25.74628598q0-21.13828601 14.848-35.98628602t35.986286-14.848 36.27885699 15.14057099 15.14057101 36.27885701-15.14057101 36.27885699-36.27885699 15.14057101q-30.86628601 0-45.714286-28.59885701l-126.317714 28.01371399q-10.82514299 2.85257101-14.262857-9.14285698l-39.424-178.32228601q-102.83885701-4.02285701-176.566857-55.442286-19.968 21.13828601-49.737143 21.13828602-28.59885699 0-48.566857-19.968t-19.968-47.98171401q0-19.968 10.605714-36.57142901t28.306286-25.16114299q-3.43771403-15.43314301-3.43771399-32.03657102 0-81.11542899 80.01828599-138.82514297t192.58514299-57.70971401q113.152 0 193.17028601 57.70971401t80.01828599 138.82514297q0 18.28571402-4.022857 32.54857103 17.11542899 8.55771402 27.42857101 24.86857098t10.313143 36.278857zM1024 384q0-104.00914301-40.59428601-198.87542901t-109.129143-163.40114299-163.401143-109.12914301-198.875429-40.594286-198.87542898 40.594286-163.40114302 109.12914301-109.12914299 163.40114299-40.59428599 198.87542901 40.59428599 198.87542901 109.12914299 163.40114299 163.40114302 109.12914301 198.87542898 40.594286 198.87542902-40.594286 163.40114298-109.12914301 109.129143-163.40114299 40.59428601-198.87542901z"  horiz-adv-x="1024" />

    
    <glyph glyph-name="stackoverflow" unicode="&#59482;" d="M1024 255.99999999L1024-128 0-128 0 255.99999999 127.99999999 255.99999999 127.99999999-1.0000007932831068e-8 896.00000001-1.0000007932831068e-8 896.00000001 255.99999999ZM192 192L832 192 832 64 192 64zM207.136 330.528L234.848 455.48800002 859.68 316.99199998999995 832 192.03200000000004zM279.648 587.45600001L333.75999999 703.456 913.792 432.992 859.68 316.99199998999995zM991.712 534.52800001L913.792 432.96000002 406.048 822.59200001 462.39999999 896 520.64000001 896Z"  horiz-adv-x="1024" />

    
    <glyph glyph-name="twitter" unicode="&#59549;" d="M1024.032 701.568c-37.664-16.70400001-78.176-28-120.67199999-33.08800001 43.36 26.01600001 76.672 67.168 92.38399999 116.22400002-40.608-24.064-85.56800001-41.56799999-133.408-50.97600001-38.33600001 40.832-92.928 66.336-153.344 66.33600001-116.03200001 0-210.08-94.048-210.08-210.08000001 0-16.48 1.85599999-32.512 5.44-47.872-174.592 8.76800001-329.40800001 92.416-433.024 219.52-18.08-31.04000001-28.448-67.104-28.448-105.632 0-72.89599999 37.088-137.184 93.472-174.88-34.432 1.08800001-66.816 10.528-95.168 26.272-0.032-0.864-0.032-1.76-0.03199999-2.656 0-101.79200001 72.416-186.68800001 168.51199999-206.016-17.632-4.80000001-36.192-7.36000001-55.35999999-7.36-13.536 0-26.68800001 1.312-39.52000001 3.776 26.752-83.456 104.32-144.19200001 196.256-145.888-71.904-56.352-162.49600001-89.92000002-260.92799999-89.92000001-16.96000001 0-33.664 0.992-50.11200001 2.944 92.96-59.616 203.392-94.40000001 322.048-94.39999999 386.432 0 597.728 320.128 597.728 597.76 0 9.12-0.19200001 18.176-0.608 27.168C960.256 622.4639999999999 995.872 659.45600001 1024.032 701.568z"  horiz-adv-x="1025" />

    
    <glyph glyph-name="comment" unicode="&#58991;" d="M511.99650703 893.96123307c-281.65810858 0-509.95774009-198.84878735-509.9577401-444.15294806 0-245.30881763 228.29613853-444.15760498 509.95774008-444.15760499l0-131.61191309c0 0 310.33236707 216.91515449 364.50585258 265.15189759 89.96391481 80.03597085 145.45887346 189.74516451 145.45887348 310.62344137C1021.962397 695.11244573 793.66043762 893.96123307 511.99650703 893.96123307L511.99650703 893.96123307zM764.06522197 381.51073678c-37.56365141 0-68.01811683 29.45317205-68.01462386 65.80712107 0 36.28525567 30.45097244 65.73842773 68.01462386 65.73842773 37.56481536 0 67.97620224-29.45317205 67.97620224-65.73842773C832.04142421 410.96507392 801.63120128 381.51073678 764.06522197 381.51073678L764.06522197 381.51073678zM510.00439808 381.51073678c-37.56015842 0-68.01462387 29.45317205-68.01462386 65.80712107 0 36.28525567 30.45446542 65.73842773 68.01462386 65.73842773 37.56481536 0 68.01928078-29.45317205 68.01928078-65.73842773C578.02368 410.96507392 547.56921344 381.51073678 510.00439808 381.51073678L510.00439808 381.51073678zM253.96194418 381.51073678c-37.49728597 0-67.94709449 29.45317205-67.94709448 65.80712107 0 36.28525567 30.44864454 65.73842773 67.94709448 65.73842773 37.55899449 0 68.00880298-29.45317205 68.00880298-65.73842773C321.97074718 410.96507392 291.52093867 381.51073678 253.96194418 381.51073678L253.96194418 381.51073678z"  horiz-adv-x="1024" />

    
    <glyph glyph-name="menu" unicode="&#59026;" d="M44.73924267 691.02766459h948.35567881c17.49204385 0 31.64296533 14.14970785 31.64296534 31.6004883 0 17.47019852-14.15092148 31.62112-31.64296534 31.62112h-948.35567881c-17.44956682 0-31.6004883-14.14970785-31.6004883-31.62112 0.00121363-17.45078045 14.15092148-31.6004883 31.6004883-31.6004883zM993.09734875 58.78245451999999h-948.35567883c-17.44956682 0-31.6004883-14.15092148-31.60048829-31.62354727 0-17.47019852 14.14970785-31.59927467 31.60048829-31.59927466h948.35567883c17.49204385 0 31.64296533 14.12907615 31.64296533 31.59927466 0.00242725 17.47262578-14.14970785 31.62354725-31.64053808 31.62354727zM993.09734875 406.51525689h-948.35567883c-17.44956682 0-31.6004883-14.12786252-31.60048829-31.61990637 0-17.45199408 14.14970785-31.60170192 31.60048829-31.60170193h948.35567883c17.49204385 0 31.64296533 14.14970785 31.64296533 31.60170193 0.00242725 17.49204385-14.14970785 31.61990637-31.64053808 31.61990637z"  horiz-adv-x="1025" />

    
    <glyph glyph-name="jsfiddle" unicode="&#59219;" d="M1028.576 454.84800001q63.42400001-26.272 102.56-83.13600001t39.136-126.56q0-93.728-67.42399999-160.288t-162.84800001-66.56q-2.272 0-6.56000001 0.288t-6.016 0.28799999l-695.424 0q-97.152 5.728-164.57599999 71.71200001t-67.424 160.288q0 62.848 31.42399999 116t84.00000001 83.99999999q-6.84800001 22.272-6.848 46.84800002 0 65.72800001 46.848 111.99999998t113.728 46.27200001q54.27200001 0 98.27199999-33.152 42.848 88.00000001 127.13600001 141.728t186.56 53.728q94.848 0 174.848-46.01600001t126.56-124.86399999 46.56-172q0-3.424-0.28800001-10.272t-0.28799999-10.272zM267.424 302.84799999999996q0-69.728 48-110.27200001t118.848-40.57599998q78.27200001 0 137.152 56.576-9.15199999 11.424-27.136 32.28799999t-24.864 28.864q-38.272-37.152-82.272-37.152-31.42400001 0-53.44 19.13599999t-22.016 50.01600001q0 30.27200001 22.016 49.728t52.288 19.42399999q25.15200001 0 48.28799999-11.99999999t41.728-31.424 37.15200001-42.84800001 39.424-46.848 44.00000001-42.84799999 55.424-31.424 69.43999999-12.00000001q69.152 0 116.864 40.86400001t47.712 108.864q0 69.152-48 109.72799999t-118.272 40.57600002q-81.72800002 0-137.728-55.42400002 8.00000002-9.15199999 16.86400001-19.42399999t19.712-22.848 16.57599999-19.42399999q37.728 36.576 81.152 36.57599999 29.728 0 52.576-18.848t22.848-48q0-32.57600002-21.152-52.28800001t-53.728-19.712q-24.576 0-47.136 12t-41.15200001 31.42400001-37.43999999 42.84800001-39.712 46.848-44.288 42.84799999-55.136 31.424-67.712 12.00000001q-69.728 0-118.272-40.288t-48.57600001-108.28800001z"  horiz-adv-x="1184" />

    
    <glyph glyph-name="weibo" unicode="&#59538;" d="M385.71428601 162.28571398999998q12 19.42857101 6.28571398 39.42857101t-25.714286 28.57142899q-19.42857101 8.00000002-41.71428598 0.571429t-34.28571402-26.28571399q-12.571429-19.42857101-7.42857099-39.142857t24.57142901-28.857143 42.57142899-1.42857101 35.71428601 27.14285702z m53.71428599 69.14285701q4.57142899 7.428571 2 15.142857t-10 10.571429q-8.00000002 2.857143-16.28571399-2.85714298t-12.28571401-10.57142902q-9.71428601-17.71428601 7.428571-25.714286 8.00000002-2.857143 16.571429-2.857143t12.571429 10.571429z m99.428571-61.14285698q-25.71428601-58.28571402-90.285714-85.71428602t-128-6.85714301q-61.142857 19.42857101-84.285714 72.28571401t3.71428599 107.14285701q26.857143 53.142857 86.57142902 79.42857099t120.285714 10.85714301q63.428571-16.571429 90.57142899-68.28571401t1.428571-108.857143z m178.285714 91.42857098q-5.142857 54.85714301-50.85714298 97.14285701t-119.14285702 62.28571399-156.85714298 11.99999999q-127.428571-13.142857-211.14285702-80.85714299t-75.714286-151.142857q5.142857-54.85714301 50.85714302-97.142857t119.14285698-62.285714 156.85714303-12.00000001q127.428571 13.142857 211.14285697 80.85714301t75.714286 151.142857z m176-2.285714q0-38.85714301-21.14285699-79.714286t-62.285714-78.285714-96.28571401-67.14285698-129.142857-47.42857102-154.57142899-17.714286-157.14285701 19.14285702-137.42857099 53.14285698-98 86.285714-37.142857 114q0 65.71428601 39.71428599 139.99999999t112.85714301 147.428571q96.571429 96.571429 195.14285699 134.85714301t140.85714301-4q37.142857-36.57142899 11.42857099-119.42857101-2.28571402-8.00000002-0.57142899-11.42857099t5.714286-4 8.28571399-2.85714298 7.71428601 2l3.42857099 1.14285698q79.428571 33.71428601 140.57142901 33.714286t87.42857099-34.85714298q25.71428601-36 0-101.71428602-1.142857-7.428571-2.571429-11.428571t2.571429-7.142857 6.857143-4.28571399 9.71428602-3.42857101q32.571429-10.28571402 58.85714298-26.857143t45.714286-46.571429 19.42857101-66.57142898z m-42.285714 356.57142901q24.00000001-26.857143 31.142857-62.00000001t-3.71428598-67.14285701q-4.57142899-13.142857-16.85714302-19.428571t-25.428571-2.285714q-13.142857 4.57142899-19.42857099 16.85714301t-2.28571401 25.428571q11.42857101 36-13.714286 63.428571t-61.14285699 20q-13.71428601-2.857143-25.714286 4.57142899t-14.285714 21.14285701q-2.857143 13.71428601 4.571429 25.428571t21.142857 14.571429q34.28571399 7.428571 68-3.142857t57.71428599-37.428571z m103.42857098 93.14285699q49.71428601-54.85714301 64.28571402-127.142857t-7.71428599-138.00000001q-5.142857-15.428571-19.42857101-22.85714299t-29.714286-2.285714-22.85714299 19.42857103-2.85714301 29.71428597q16 46.857143 5.71428599 98.28571402t-45.714286 90.28571398q-35.428571 39.428571-84.57142898 54.571429t-98.85714301 4.857143q-16-3.428571-29.714286 5.428571t-17.142857 24.85714303 5.428571 29.42857097 24.85714302 16.857143q70.28571399 14.857143 139.42857099-6.571429t118.85714298-76.857143z"  horiz-adv-x="1024" />

    
    <glyph glyph-name="wechat" unicode="&#58920;" d="M692.313043 548.7304349799999c11.13043498 0 22.26086999 0 35.61739099-2.22608698C696.765217 691.2 540.93913001 800.278261 362.85217399 800.278261c-198.121739 0-360.62608699-135.791304-360.62608698-307.2 0-100.17391301 53.42608699-180.313043 144.69565199-242.643478L111.304348 139.13043498000002l126.886957 62.33043503c44.521739-8.904348 82.365217-17.808696 126.88695698-17.808696 11.13043498 0 22.26086999 0 33.39130403 2.22608699-6.678261 24.486957-11.13043498 48.97391301-11.13043501 75.68695701C385.113043 419.61739099 520.904348 548.7304349799999 692.313043 548.7304349799999L692.313043 548.7304349799999zM498.64347801 646.678261c26.713043 0 44.521739-17.808696 44.52173899-44.52173899 0-26.713043-17.808696-44.521739-44.52173899-44.52173901-26.713043 0-53.42608699 17.808696-53.426087 44.52173901C445.21739099 628.86956502 471.93043498 646.678261 498.64347801 646.678261L498.64347801 646.678261zM244.86956502 555.408696c-26.713043 0-53.42608699 17.808696-53.42608701 44.52173898 0 26.713043 26.713043 44.521739 53.42608701 44.52173901 26.713043 0 44.521739-17.808696 44.52173898-44.52173901C291.61739101 573.21739101 273.808696 555.408696 244.86956502 555.408696L244.86956502 555.408696zM244.86956502 555.408696M1021.77391301 266.01739098999997c0 144.695652-144.695652 262.678261-307.20000002 262.67826101-171.408696 0-307.2-117.98260901-307.19999998-262.67826101 0-144.695652 135.791304-262.678261 307.19999998-262.678261 35.61739099 0 71.234783 8.904348 109.078261 17.808696l97.94782601-53.42608699-26.713043 91.269565C968.34782599 112.41739100999996 1021.77391301 185.87826099999995 1021.77391301 266.01739098999997L1021.77391301 266.01739098999997zM616.62608699 312.765217c-17.808696 0-35.61739099 17.808696-35.61739099 35.617391 0 17.808696 17.808696 35.61739099 35.61739101 35.61739099 26.713043 0 44.521739-17.808696 44.52173898-35.61739099C661.14782601 330.57391300999996 643.33913001 312.765217 616.62608699 312.765217L616.62608699 312.765217zM814.74782599 312.765217c-17.808696 0-35.61739099 17.808696-35.61739098 35.617391 0 17.808696 17.808696 35.61739099 35.617391 35.61739099 26.713043 0 44.521739-17.808696 44.52173901-35.61739099C859.26956502 330.57391300999996 841.46087001 312.765217 814.74782599 312.765217L814.74782599 312.765217zM814.74782599 312.765217"  horiz-adv-x="1024" />

    
    <glyph glyph-name="dribbble" unicode="&#59030;" d="M780.60202666-25.54538666999997c-5.49205333 31.11594668-31.11594668 179.38432-95.18421333 362.43000889 153.75587555 25.62616889 289.21059555-16.47274667 305.68561778-21.9648-20.13411555-140.94677333-98.84330667-263.58442667-210.50254222-340.46407111zM506.03463111-113.40800000000002c-113.48992 0-217.82300445 40.27050667-302.02538666 107.99672889 9.15114667 18.30684445 107.99672889 217.82300445 386.22549333 316.66744889 1.83068445 0 1.83068445 0 3.66250666 1.83068444 69.55690667-184.87751111 97.01376-340.46407113 104.33422223-384.39708444-58.57621333-27.45685334-124.47061333-42.10119111-192.19797335-42.10119111zM13.64081778 395.45742222v14.64319999c21.9648 0 259.92419555-3.66250667 505.20632889 71.38645334 14.6432-29.28753778 27.45685334-56.74325333 40.27050667-86.03306666-7.32046222-1.83068445-12.81479111-3.66250667-20.13411555-5.49205334-254.43214222-84.20010666-388.05617778-314.83904-400.86755557-334.97429333-75.05009778 91.52398222-124.47061333 210.50254221-124.47061333 340.46407111zM297.36049778 854.90346667c12.81479111-18.30684445 100.67626667-144.60586667 183.04568889-292.87424-230.63665777-62.23644446-433.8176-62.23644446-455.7824-62.23644445 31.11594668 157.41838223 135.45585778 287.38218667 272.73898666 355.10954667zM506.03463111 902.49671111c124.47061333 0 239.78894222-47.59096887 325.82087111-128.13312-9.15114667-12.81479111-82.37056001-115.32060444-258.09464889-183.04568889-80.53987555 151.92860445-170.23317333 278.22876445-183.04568888 296.53333333 36.60686222 9.15114667 75.05009778 14.6432 115.32060444 14.64320001zM886.76579555 715.78851555c67.72622222-86.03306667 109.82627555-195.85934222 111.65809778-316.66744888-16.47274667 3.66250667-179.38432 38.44096-342.29589333 16.47274666-3.66250667 9.15114667-7.32046222 18.30684445-10.98296889 25.62616889-10.98296889 25.62616889-21.9648 49.42165333-32.94890666 73.21941334 183.04568889 78.70919111 265.41738667 186.70592 274.5696711 201.34911999z"  horiz-adv-x="1024" />

    
    <glyph glyph-name="rss" unicode="&#59118;" d="M300.77082008 30.644148159999986q0-55.480212-38.83614812-94.31636015t-94.31635894-38.83614815-94.31636014 38.83614815-38.83614814 94.31636015 38.83614814 94.31636013 94.31636014 38.83614816 94.31635894-38.83614816 38.83614814-94.31636013z m355.07335503-85.30082504q1.38700512-19.41807408-11.78954532-33.28812767-12.48304726-14.56355555-32.59462449-14.56355556H517.83714831q-17.33756577 0-29.82061307 11.44279435t-13.8700536 28.7803589q-15.25705872 158.81210599-127.95123759 271.50628606T74.688958 337.17231799q-17.33756577 1.38700512-28.78036014 13.87005238T34.46580474 380.86298466000005V474.48584163q0 20.11157724 14.56355556 32.5946245 11.78954533 11.78954533 29.82061306 11.7895441h3.46751341q110.96042276-9.01553388 212.21180969-55.82696296T474.14648164 337.17231799q79.05930141-78.36579946 125.87073051-179.61718519t55.82696296-212.21180968z m355.0733538-1.38700513q1.38700512-18.72457091-12.48304727-32.5946245-12.48304726-13.87005238-31.90112134-13.87005363h-99.17087866q-18.03106896 0-30.86086719 12.1362963T822.97831302-60.89820053999995q-8.32203193 149.10306896-70.04376754 283.29583018t-160.54586208 233.01688888-233.0168889 160.54586212T76.07596312 686.69765132q-17.33756577 0.69350317-29.47386208 13.52330142T34.46580474 730.38831799V829.55919542q0 19.41807408 13.8700524 31.90112257 12.48304726 12.48304726 30.51411622 12.48304728h2.08050828q181.69769348-9.01553388 347.79157726-83.220318T723.80743438 586.83326949q129.68499488-128.99149171 203.88977777-295.08537548t83.22031676-347.79157602z"  horiz-adv-x="1024" />

    
    <glyph glyph-name="github" unicode="&#58921;" d="M0 371.00799999000003q0-166.016 95.488-298.496t247.48800001-185.50399999q6.016-0.992 10.01599999-0.99200001t6.49599999 1.50400001 4.00000001 3.008 2.01599999 4.992 0.512 4.992v100.512q-36.992-4-66.01599999 0.512t-45.504 14.01599998-28.992 23.48800002-16.992 25.504-8.992 24-5.504 14.496q-8.992 15.008-27.008 27.488t-27.008 20-2.016 14.496q50.016 26.01600001 112.992-66.01600001 34.016-51.00800002 119.00800001-30.01599999 10.016 40.992 39.99999999 70.016Q293.984 160 237.984 225.024t-56 158.01600001q0 87.008 55.00799999 151.00799999-22.016 64.992 6.016 136.99200001 28.99200001 2.016 64.99200001-11.48800001t50.496-23.008 25.50399999-17.504q56.992 16 128.51200001 16t129.504-16q12.99200001 8.992 28.992 19.008t48.992 21.504 60.99200001 9.504q27.008-71.008 7.00799999-135.008 56.00000001-64 56-151.00800001 0-92.99200001-56.99199999-158.49599999t-172.00000002-85.504q43.008-43.008 43.008-104v-128.992q0-0.992 0.99200002-3.00800001 0-6.016 0.512-8.99199999t4.51199999-6.016 12.00000001-3.008q152.99200001 52 250.49599998 185.504t97.50400001 300.512q0 104.00000001-40.512 199.00800001t-108.992 163.48799999-163.488 108.992T512.032 883.04 313.02399999 842.528 149.536 733.5360000000001t-108.992-163.48800001-40.512-199.00799999z"  horiz-adv-x="1024" />

    
    <glyph glyph-name="up" unicode="&#59188;" d="M860.55384601 147.69230800000003H163.44615399c-19.692308 0-33.476923 25.6-17.72307699 43.32307699l340.676923 417.47692301c11.81538499 15.75384599 37.41538501 15.75384599 49.230769 0l344.61538499-417.47692299c13.78461501-17.723077 1.969231-43.323077-19.692308-43.32307701z"  horiz-adv-x="1024" />

    
    <glyph glyph-name="behance" unicode="&#58881;" d="M404.224 447.42400001c12.99200001 9.40800001 19.2 25.02400001 19.2 46.592a59.904 59.904 0 0 1-6.20800001 29.37599999 46.08000001 46.08000001 0 0 1-17.40799998 17.792 68.80000001 68.80000001 0 0 1-24.83200003 9.02400001 152.704 152.704 0 0 1-28.99199998 2.62399999H240.57599999v-119.61600001H354.56c20.03200001-0.19200001 36.608 4.608 49.60000001 14.20800002zM422.016 339.39199999000004c-14.78400001 11.20000001-34.36800001 16.768-58.81600001 16.768H240.57599999v-140.99199999h120.19200002c11.20000001 0 21.632 1.02400001 31.616 3.2s19.00800001 5.632 26.624 10.81600002c7.61600001 4.992 13.824 11.776 18.36799999 20.41599998s6.784 19.77600001 6.784 33.21600002c0 26.368-7.42399999 45.184-22.20799999 56.57599997zM928 896h-832C43.20000001 896 0 852.7999999900001 0 800v-832c0-52.80000001 43.20000001-96 96-96h832c52.80000001 0 96 43.20000001 96 96v832c0 52.80000001-43.20000001 96-96 96z m-256.768-269.37600001h207.42400001V576h-207.42400001v50.62400001z m-129.59999999-417.02399998a131.84 131.84 0 0 0-40.38400001-46.40000001 180.48 180.48 0 0 0-58.17599999-26.624A256.44800001 256.44800001 0 0 0 376.25599999 128H128.06399999V639.80800002H369.28c24.38400002 0 46.592-2.176 66.81600001-6.40000003 20.03200001-4.224 37.18400001-11.392 51.58399999-21.18399999 14.208-9.79200001 25.40800001-22.784 33.408-38.97600001 7.808-16 11.776-36.224 11.776-60.03200001 0-25.79200001-5.82400001-47.16800001-17.60000001-64.38399999s-28.99200001-31.16800001-52.22399998-42.17599999c31.616-9.02399999 54.784-25.02400001 70.20799999-47.616 15.616-22.784 23.23200001-50.17600001 23.23200001-82.176 0.19200001-26.17600001-4.80000001-48.57600001-14.784-67.19999999z m417.792 79.168h-267.39200002c0-29.184 9.984-57.02400001 25.21600002-72.00000002 15.232-14.78400001 37.18400001-22.39999999 65.792-22.4 20.608 0 38.20799999 5.18400001 53.18399999 15.616 14.78400001 10.36799999 23.808 21.376 27.20000001 32.768h89.59999998c-14.40000001-44.60800001-36.224-76.416-65.98399999-95.61599998-29.37600001-19.2-65.408-28.8-107.20000001-28.8-29.184 0-55.424 4.80000001-78.97599998 14.01599998a167.23200001 167.23200001 0 0 0-59.776 39.80800001 182.656 182.656 0 0 0-37.632 61.824A227.96800002 227.96800002 0 0 0 590.08 312.96000000000004c0 27.776 4.608 53.632 13.63200001 77.63200001a180.16000001 180.16000001 0 0 0 98.816 103.42399998 192.83200001 192.83200001 0 0 0 77.18399998 14.97599999c31.42400001 0 58.81600001-6.016 82.36800002-18.36799998 23.424-12.22400001 42.624-28.60800001 57.792-49.21600001s25.79200001-44.03200001 32.57599999-70.4c6.59200001-25.984 8.76800001-53.376 6.97600001-82.176zM776.576 432.19200001c-16.19200002 0-29.824-2.816-40.38400001-8.38400001s-19.2-12.416-25.79199999-20.41599999a72.38400001 72.38400001 0 0 1-13.63200001-26.17600001 110.39999999 110.39999999 0 0 1-4.608-24.38399999h165.63200002c-2.36799999 25.984-11.392 45.184-23.42400002 58.624-12.416 13.63200001-32.768 20.80000001-57.79199999 20.79999999z"  horiz-adv-x="1024" />

    
    <glyph glyph-name="douban" unicode="&#58899;" d="M512-128c282.76736 0 512 229.23264 512 512S794.76736 896 512 896 0 666.76736 0 384s229.23264-512 512-512z m256.20480001 705.4336H260.608v51.6096H768.20480001v-51.6096z m11.69407999-455.68H245.30944001v52.18304h159.88735999c-19.59936 42.5984-40.30464 79.40096-62.09536 110.3872l41.10336 26.4192h-72.00768V516.8332799899999h406.20032001v-206.09023999h-75.59168001l41.10336001-27.01312c-19.41504-42.5984-39.60831999-79.19616-60.6208-109.7728h156.61055999v-52.22400001z m-118.49728 240.88576v101.10975999H368.90624v-101.10975999h292.49536z m-28.50816-51.89632h-238.1824a1153.41312 1153.41312 0 0 0 69.89824001-136.8064h97.19807999c29.7984 46.20288 53.49376 91.81184 71.08608 136.8064z"  horiz-adv-x="1024" />

    
    <glyph glyph-name="quora" unicode="&#58907;" d="M512-128c282.76736 0 512 229.23264 512 512S794.76736 896 512 896 0 666.76736 0 384s229.23264-512 512-512z m226.87744001 198.45120001s-61.64480001-16.03584-99.49184001 5.57055998c-29.30688 16.73216-53.16608 53.78047999-55.15264 55.54176-17.48992001-6.63552-56.48383999-6.63552-64.7168-6.63552-78.92991999 0-142.1312 25.43615999-189.58335999 76.30848001-47.45216 50.8928-71.168 118.6816-71.16800001 203.40736 0 85.66784 23.83872 153.72287999 71.53664 204.12416 47.67744 50.3808 112.04608 75.59168 193.10592 75.59168001 81.03936 0 145.34656-25.25184 192.9216-75.776 47.57504-50.52416 71.35232-118.86592 71.35232-205.00480001 0-112.31232-39.97696-193.06496-119.97184-242.27839999-0.34816-0.20480001 7.16800001-15.31904 21.25824-22.99904001 14.06976-7.68 40.63232-6.73792 40.63232-6.73791999l9.27743999-61.11232z m-184.93440001 138.95679999c6.32832 1.7408-6.63552 17.1008-21.46304 27.97568-18.80064001 13.78304-48.7424 15.50336-48.7424 15.50335999V296.3456s41.14432 11.4688 77.90592 0c36.78208-11.44832 51.93728-46.7968 54.3744-43.45856001 1.00352 1.37216 4.5056 5.65248 5.46815999 7.08608001 24.94464001 36.57728001 37.41696 86.26176 37.41696001 149.03296 0 61.11232-12.47232 110.08-37.41696001 146.90303999s-58.1632 55.21408-99.63519999 55.21408c-41.69728 0-74.99776001-18.39104001-99.9424-55.21408-24.96512-36.82303999-37.43744-86.016-37.43744-147.61984 0-61.11232 12.43136-110.26432 37.2736-147.43551999 24.82176-37.1712 57.67168-55.74656001 98.48831999-55.74656 11.91935999 0 23.14240001 1.43360001 33.68960001 4.3008z"  horiz-adv-x="1024" />

    
    <glyph glyph-name="email" unicode="&#58980;" d="M926.25224651 798.25224651H97.74775349c-56.95968355 0-103.56306132-46.60337778-103.56306254-103.56306133v-621.37837036c0-56.95968355 46.60337778-103.56306132 103.56306254-103.56306133h828.50449302c56.95968355 0 103.56306132 46.60337778 103.56306254 103.56306133V694.68918518c0 56.95968355-46.60337778 103.56306132-103.56306254 103.56306133z m0-207.12612265l-414.25224651-258.90765513-414.25224651 258.90765513V694.68918518l414.25224651-258.90765391 414.25224651 258.90765391v-103.56306132z"  horiz-adv-x="1024" />

    
    <glyph glyph-name="bilibili" unicode="&#58958;" d="M392.25605522 646.39747965c-22.67340933 12.28142957-45.34681868 24.56286043-68.02022801 37.0017447l-112.8946852 61.40715175c-15.27306091 8.34507397-21.57123039 21.09886761-12.91124703 36.84429 8.65998335 15.90287708 23.14577211 17.00505733 38.10392363 8.81743675 88.17437007-48.02354063 176.50619612-95.88962787 264.52311279-144.54298596 22.51595594-12.43888426 63.13914815-5.03853584 77.46748222 16.06033176 45.03191058 65.34350733 89.90636778 130.68701338 134.78082368 196.18797541 1.57454172 2.36181388 3.14908474 4.72362646 4.72362645 6.92798564 12.75379235 17.79232819 27.39703709 22.51595594 40.62319222 12.12397618 15.27306091-12.12397617 12.75379235-26.45231154 2.83417665-40.93810029-18.26469097-26.60976493-36.52938192-53.37698455-54.63661949-79.9867508-25.1926779-37.00174469-50.38535452-74.0034894-78.56966246-115.09904437H945.55023185c29.60139627 0 34.16756804-4.72362646 34.32502273-34.32502273 0.3149081-202.95850636 0.47236277-405.75955933 0.78727086-608.718067 0-28.97157882-5.19598923-34.01011466-34.7973855-34.16756804-7.7152578 0-15.587969-0.78727086-23.14577211 0.15745469-28.02685326 3.14908474-48.49590341 0.47236277-58.258067-34.16756933-8.81743675-31.17593799-42.04028053-47.07881637-71.95658361-43.92973035-34.63993083 3.62144751-57.47079485 24.09049766-66.28823289 56.3686146-5.35344394 19.52432459-14.48579005 22.20104656-32.12066354 22.04359316-121.71212193-0.78727086-243.2667905-0.47236277-364.97891244-0.15745467-14.01342727 0-22.20104656-1.25963363-26.29485684-18.26469097-8.81743675-36.52938192-38.8911958-59.67515404-72.1140396-60.3049715-34.48247743-0.62981747-64.39878179 21.88613847-74.47585217 59.83260872-4.25126368 15.90287708-11.33670531 19.52432459-25.97994875 18.73705375-18.89450843-1.10218023-37.94647025-0.47236277-56.99843207-0.15745341-20.78395823 0.47236277-29.91630436 8.97489145-29.91630436 29.2864869 0.15745469 206.26504579 0.47236277 412.68754498 0.94472554 619.11004545 0 21.4137757 8.65998335 28.49921603 32.43557164 28.49921604 97.77907898 0.15745469 195.55815794 0 293.17978221 0h20.46905146c0.62981747 1.73199641 1.25963363 3.46399282 1.88944981 5.35344392z m540.54038299-634.69801444V594.9099449099999H93.40792098v-583.2104797h839.38851723z m-674.37648112-49.12572089H200.63425417c3.93635561-16.53269455 11.96652149-28.18430795 27.39703579-29.1290335 17.16251201-1.25963363 25.3501313 11.49415871 30.38866713 29.1290335z m510.62407864 0.1574547c5.8258067-17.63487349 13.69851789-30.54612183 31.0184846-29.2864882 15.587969 1.10218023 22.83086403 13.22615513 27.55449049 29.2864882h-58.57297509zM513.81072377 51.85029463000001H176.3863018c-32.75048101 0-37.94647025 5.19598923-37.94647024 37.94647026 0.15745469 141.07899314 0.3149081 282.15798628 0.62981746 423.39443412 0 29.75884967 6.14071479 35.89956575 35.74210977 35.89956445h677.05320439c30.07375905 0 36.21447383-5.98326139 36.37192722-35.42720297 0.47236277-141.86626401 0.78727086-283.57507461 0.94472556-425.44133732 0-30.38866713-6.29816947-36.21447383-37.63156218-36.37192854H513.81072377z m324.5131749 49.91299174V498.70540895H188.66773139v-396.94212258h649.65616728zM516.8023538 172.14532955000004c-8.65998335-6.14071479-16.69014924-13.06870173-25.82249407-17.94978288-30.07375905-15.90287708-59.99006341-14.48579005-87.70200729 4.88108115-30.54612183 21.4137757-44.08718503 52.74716839-41.41046437 89.2765503 0.62981747 7.87271119 15.11560622 20.31159546 23.4606815 20.62650485 8.18762058 0.3149081 18.57959905-11.02179594 24.56286042-19.6817793 4.72362646-6.92798565 2.67672196-17.94978287 5.98326011-26.29485683 6.29816947-15.90287708 17.94978287-31.0184846 35.42720298-27.23958241 12.91124703 2.67672196 24.56286043 15.74542369 34.16756804 26.45231025 4.72362646 5.35344394 3.93635561 15.90287708 5.19599053 24.09049895 2.20435919 15.587969 11.17925063 25.03522321 26.45231153 24.72031383 13.85597259-0.3149081 22.83086403-8.81743675 24.72031384-23.93304297 1.10218023-9.60470762 1.41708833-21.57123039 7.08544033-27.86939987 9.13234613-10.23452507 22.04359317-22.51595594 33.85265996-22.98831741 10.54943316-0.3149081 23.46068019 12.59633895 31.80575547 22.67340933 5.51089861 6.61307756 5.19598923 18.42214565 6.92798693 28.02685325 2.83417665 15.27306091 11.49415871 24.56286043 27.2395824 23.46068151 15.587969-1.25963363 23.77558957-11.33670531 23.14577212-27.2395824-1.57454172-40.15082943-17.31996541-72.74385575-54.47916481-90.69363864-34.63993083-16.69014924-67.07550375-9.60470762-95.41726508 16.21778517-1.57454172 1.10218023-3.30653942 2.04690449-5.19599054 3.46399412zM793.92180426 322.35666752c0.47236277-23.77558957-18.89450843-36.84429002-36.84429001-26.60976494-48.02354063 27.39703709-95.25981169 56.21116122-142.33862678 85.18274003-12.43888426 7.7152578-15.11560622 20.31159546-7.87271249 33.06538909 7.40034843 13.06870173 20.46905015 16.53269455 32.59302632 9.60470762 48.49590341-28.02685326 96.51944533-56.84097867 144.22807787-86.28491898 5.51089861-3.62144751 8.18762058-11.96652149 10.23452509-14.95815282zM384.06843594 413.83757702c4.40871837-4.40871837 15.74542369-10.54943316 17.00505732-18.10723628 1.41708833-8.97489145-3.30653942-24.56286043-10.23452637-28.02685325-41.72537245-21.4137757-84.55292385-40.62319221-127.53792865-59.67515533-13.06870173-5.8258067-27.39703709-1.41708833-30.70357522 12.75379363-2.20435919 9.28979952 1.73199641 26.76721962 8.34507397 30.23121246 42.98500609 22.04359317 87.3870992 41.095555 131.31683084 61.09224235 1.8894511 0.78727086 4.09381029 0.62981747 11.80906811 1.73199642z"  horiz-adv-x="1024" />

    
    <glyph glyph-name="codepen" unicode="&#59883;" d="M249.77721401 429.561615v-91.12323l68.18008899 45.66983699zM484.836187 495.577256v127.05305499L271.638131 480.42612599l95.23568-63.63474999zM752.361869 480.42612599l-213.198056 142.204185V495.577256l117.962376-78.78588zM271.638131 287.57387401000005l213.198056-142.204185v127.05305499l-117.962376 78.78588zM539.163813 272.42274399999997v-127.05305499l213.198056 142.20418498-95.23568 63.63475001zM511.89177801 448.39230601l-96.101459-64.284084 96.10145898-64.500528 96.31790302 64.500528zM511.89177801 896C229.214965 896 0 666.785035 0 384.10822199S229.214965-127.78355499999998 511.89177801-127.78355499999998 1023.783555 101.43141001000004 1023.783555 384.10822199C1024 666.785035 794.785035 896 511.89177801 896z m316.65863399-608.42612599c0-1.298668 0-2.380892-0.216445-3.46311502 0-0.432889-0.216445-0.865779-0.216444-1.08222399-0.216445-0.865779-0.216445-1.515113-0.43289002-2.380892-0.216445-0.432889-0.216445-0.865779-0.43288899-1.29866799l-0.64933398-1.94800301-0.64933501-1.29866799c-0.216445-0.64933399-0.64933399-1.298668-0.865778-1.731558-0.216445-0.432889-0.432889-0.865779-0.86577899-1.298668-0.432889-0.64933399-0.64933399-1.082224-1.082224-1.73155801-0.216445-0.432889-0.64933399-0.865779-0.86577902-1.082224-0.432889-0.432889-0.865779-1.082224-1.29866799-1.515113l-1.08222401-1.08222301c-0.432889-0.432889-1.082224-0.865779-1.51511297-1.298669-0.432889-0.216445-0.865779-0.64933399-1.29866801-0.86577899-0.216445 0-0.216445-0.216445-0.43289001-0.432889l-289.38659899-192.852251c-4.54533901-3.03022599-9.740013-4.54533901-15.151131-4.545339-5.194673 0-10.60579199 1.515113-15.15113001 4.545339l-289.3866 192.63580601c-0.216445 0-0.216445 0.216445-0.432889 0.43288999-0.432889 0.216445-0.865779 0.64933399-1.298668 0.86577901-0.432889 0.432889-1.082224 0.865779-1.51511299 1.29866798l-1.08222402 1.082224c-0.432889 0.432889-0.865779 0.865779-1.298668 1.51511301-0.216445 0.432889-0.64933399 0.865779-0.86577899 1.082223-0.432889 0.432889-0.865779 1.082224-1.082224 1.731558-0.216445 0.432889-0.432889 0.865779-0.865779 1.298668-0.432889 0.64933399-0.64933399 1.298668-0.86577899 1.731558l-0.64933401 1.298669-0.649334 1.94800199c-0.216445 0.432889-0.216445 0.865779-0.43289 1.29866802-0.216445 0.64933399-0.432889 1.515113-0.43288899 2.380892 0 0.432889-0.216445 0.865779-0.21644501 1.082224-0.216445 1.082224-0.216445 2.380892-0.216444 3.463116V480.42612599c0 1.298668 0 2.380892 0.216444 3.46311502 0 0.432889 0.216445 0.865779 0.21644501 1.08222399 0.216445 0.865779 0.216445 1.515113 0.43288899 2.380892 0.216445 0.432889 0.216445 0.865779 0.43289 1.29866801l0.649334 1.94800299 0.64933401 1.29866799c0.216445 0.64933399 0.64933399 1.298668 0.86577899 1.731558 0.216445 0.432889 0.432889 0.865779 0.865779 1.298668 0.432889 0.64933399 0.64933399 1.082224 1.082224 1.73155801 0.216445 0.432889 0.64933399 0.865779 0.86577899 1.082224 0.432889 0.432889 0.865779 1.082224 1.298668 1.515113l1.08222402 1.08222301c0.432889 0.432889 1.082224 0.865779 1.51511299 1.29866898 0.432889 0.216445 0.865779 0.64933399 1.298668 0.86577901 0.216445 0 0.216445 0.216445 0.432889 0.432889l289.3866 192.852251c9.090679 6.060452 20.99513801 6.060452 30.085816 0l289.3866-192.852251c0.216445 0 0.216445-0.216445 0.432889-0.432889 0.432889-0.216445 0.865779-0.64933399 1.298668-0.86577901 0.432889-0.432889 1.082224-0.865779 1.51511299-1.29866898l1.08222402-1.08222301c0.432889-0.432889 0.865779-0.865779 1.298668-1.515113 0.432889-0.432889 0.64933399-0.865779 0.86577899-1.082224 0.432889-0.432889 0.865779-1.082224 1.082224-1.73155801 0.216445-0.432889 0.432889-0.865779 0.865779-1.298668 0.432889-0.64933399 0.64933399-1.082224 0.86577901-1.73155798l0.64933399-1.29866801 0.649334-1.94800299c0.216445-0.432889 0.216445-0.865779 0.43289-1.29866801 0.216445-0.64933399 0.432889-1.515113 0.43288899-2.380892 0-0.432889 0.216445-0.865779 0.21644501-1.08222399 0.216445-1.082224 0.216445-2.380892 0.216444-3.46311502v-192.85225198zM774.22278599 338.43838500000004v91.12323l-68.18008899-45.45339299z"  horiz-adv-x="1024" />

    
    <glyph glyph-name="pinterest" unicode="&#58890;" d="M512.725333 896C230.229333 896 1.237333 667.008 1.237333 384.554667c0-216.704 134.741333-401.792 325.034667-476.245334-4.48 40.49066701-8.490667 102.528 1.749333 146.730667 9.344 39.978667 59.989333 254.165333 59.989334 254.165333s-15.317333 30.72-15.317334 75.989334c0 70.954667 41.258667 124.202667 92.501334 124.20266601 43.690667 0 64.768-32.810667 64.76800001-72.02133301 0-43.904-27.861333-109.525333-42.32533401-170.325333-12.16-50.901333 25.60000001-92.373333 75.733334-92.373334 90.794667 0 160.76800001 95.78666699 160.768 234.112 0 122.069333-88.021333 207.744-213.674667 207.744-145.493333 0-230.784-109.312-230.784-221.82399999 0-44.074667 16.810667-91.434667 37.930667-116.94933301 4.224-5.12000001 4.778667-9.6 3.626666-14.72-3.84-16-12.501333-51.157333-14.250666-58.154667-2.261333-9.6-7.338667-11.562667-17.109334-7.04-63.786667 29.44-103.808 122.794667-103.808 198.229334 0 161.109333 117.248 309.418667 337.92 309.418666 177.408 0 315.392-126.592 315.392-295.381333 0-176.426667-111.232-318.378667-265.941333-318.378667-51.797333 0-100.437333 26.837333-117.674667 58.837334l-31.957333-121.514667c-11.477333-44.58666701-42.837333-100.352-63.914667-134.229333 47.914667-14.72 98.389333-22.826667 151.466667-22.826667 281.898667 0 511.36 228.90666699 511.36 511.445333C1022.72 666.026667 793.258667 894.890667 511.36 894.890667L512.725333 896z"  horiz-adv-x="1024" />

    
    <glyph glyph-name="codesandbox" unicode="&#59518;" d="M751.81321482 750.5161481499999l0.48545185 0.24272593h0.24272592L512 888.86992592 271.57997037 750.7588740799999h-0.24272592l0.84954073-0.3640889L74.48651852 636.43496297v-504.86992594L512-120.86992592000001l437.51348148 252.43496295V636.43496297l-197.70026666 114.08118518zM476.44065185-18.439585179999995L302.77025185 81.80622222V251.22891851999998L145.48385185 340.55205924999996V552.8158814799999l330.9568-190.90394073v-380.35152593zM179.70820741 615.19644445l163.47591111 94.42038518 168.57315556-96.72628148 168.81588147 96.9690074 164.08272593-94.6631111-332.41315556-191.75348148-332.53451851 191.75348148zM878.51614815 339.94524445l-156.3154963-88.71632593v-168.81588149l-174.6413037-100.73125925V361.66921482L878.51614815 552.57315555v-212.6279111z"  horiz-adv-x="1024" />

    
    <glyph glyph-name="google" unicode="&#59526;" d="M512 893.72444445C230.51377778 893.72444445 2.27555555 665.48622222 2.27555555 384s228.23822222-509.72444445 509.72444445-509.72444445 509.72444445 228.23822222 509.72444445 509.72444445S793.48622222 893.72444445 512 893.72444445z m41.5288889-635.79022223c-49.94844446-70.31466667-150.30044446-90.79466667-228.57955557-60.64355556-78.50666667 29.92355556-134.25777778 112.86755555-127.54488889 197.40444445 1.70666668 103.42400001 96.93866667 194.10488889 200.36266667 190.57777779 49.60711111 2.27555555 96.256-19.22844446 134.25777778-49.60711113-16.27022223-18.432-32.99555555-36.18133333-50.97244444-52.6791111-45.6248889 31.51644446-110.592 40.50488889-156.21688891 4.096-65.30844445-45.16977779-68.26666667-151.77955555-5.46133331-200.36266668 61.09866668-55.40977779 176.58311111-27.87555556 193.53599999 57.00266668-38.22933333 0.5688889-76.68622222 0-114.91555555 1.25155556-0.11377779 22.86933334-0.22755555 45.6248889-0.1137778 68.49422223 63.94311111 0.22755555 128.00000001 0.34133334 192.05688892-0.22755556 3.75466668-53.8168889-3.41333333-110.93333334-36.40888892-155.30666668zM829.44 356.12444444000005c-19.11466667-0.22755555-38.22933333-0.34133334-57.344-0.4551111-0.22755555-19.11466667-0.34133334-38.22933333-0.34133334-57.344H714.52444445c-0.22755555 19.11466667-0.22755555 38.11555556-0.34133335 57.23022221-19.11466667 0.22755555-38.22933333 0.34133334-57.344 0.56888891v57.00266665c19.11466667 0.22755555 38.22933333 0.34133334 57.344 0.34133335 0.11377779 19.11466667 0.34133334 38.22933333 0.45511111 57.344h57.11644445l0.34133334-57.344c19.11466667-0.22755555 38.22933333-0.22755555 57.344-0.34133335v-57.00266667z"  horiz-adv-x="1024" />

    
    <glyph glyph-name="zhihu" unicode="&#59531;" d="M512 893.72444445C230.51377778 893.72444445 2.27555555 665.48622222 2.27555555 384s228.23822222-509.72444445 509.72444445-509.72444445 509.72444445 228.23822222 509.72444445 509.72444445S793.48622222 893.72444445 512 893.72444445z m-103.19644446-543.63022223l-0.11377776-1.70666668c-1.70666668-23.21066667-7.16800001-49.94844446-14.67733332-76.91377777l27.30666667 20.59377778 80.78222221-91.81866668c10.46755555-37.54666667-3.75466668-71.79377779-3.75466667-71.79377776l-108.88533335 127.31733335v0.11377776c-10.12622223-32.99555555-22.86933334-65.19466668-37.88799999-96.36977778-25.71377778-51.99644446-62.80533333-62.23644446-101.83111112-65.64977777-39.13955555-3.41333333-26.51022223 6.03022223-26.51022221 6.03022223 77.36888889 63.14666668 88.74666667 99.89688889 110.13688889 140.06044443 13.53955556 25.37244446 23.21066667 73.15911113 28.78577779 110.13688889H229.94488887s5.46133333 35.49866667 21.84533336 47.44533334h115.59822221c0.68266667 17.40800001-1.47911113 116.96355555-2.27555557 149.504h-56.20622221c-10.46755555-51.2-46.64888889-64.51200001-54.72711111-68.38044445-7.96444445-3.86844445-26.85155555-8.07822223-24.00711111 0 2.95822222 8.07822223 30.72 52.56533333 49.152 125.95200002 18.54577779 73.50044445 72.70400001 70.54222222 72.70400001 70.54222221-14.56355555-25.60000001-25.48622222-83.74044445-25.48622223-83.74044444h181.70311112c11.49155556 0 12.06044445-44.37333333 12.06044443-44.37333334h-103.31022221c-0.79644446-25.82755556-3.18577778-95.34577778-5.68888888-149.504H519.96444445s13.88088889-17.52177778 13.88088888-47.44533334H408.80355554z m394.24000001-190.00888889h-99.66933333l-79.07555556-53.02044444-18.65955556 53.02044444h-45.62488888V600.74666668h243.02933333v-440.66133335zM393.89866667 271.36s0 0.11377779 0 0zM639.65866667 164.06755553999994l64.62577778 43.34933335h51.88266666-0.11377779V551.59466668H608.36977779v-344.17777779h16.04266666z"  horiz-adv-x="1024" />

    
    <glyph glyph-name="instagram" unicode="&#59535;" d="M512 556.56195161c-95.01910914 0-172.56195161-77.54284247-172.56195161-172.56195161S416.98089086 211.43804838999995 512 211.43804838999995 684.56195161 288.98089086000004 684.56195161 384 607.01910914 556.56195161 512 556.56195161zM1029.55640098 384c0 71.45851259 0.64726914 142.26975605-3.3657995 213.59881482-4.01306864 82.85044939-22.91332741 156.3802232-83.49771851 216.96461432-60.71384494 60.71384494-134.11416494 79.48464987-216.96461433 83.49771851-71.45851259 4.01306864-142.26975605 3.3657995-213.59881481 3.36579952-71.45851259 0-142.26975605 0.64726914-213.59881481-3.36579952-82.85044939-4.01306864-156.3802232-22.91332741-216.96461433-83.49771851C20.85217975 753.84958419 2.08137482 680.44926419-1.93169383 597.5988148199999c-4.01306864-71.45851259-3.3657995-142.26975605-3.3657995-213.59881482s-0.64726914-142.26975605 3.3657995-213.59881482c4.01306864-82.85044939 22.91332741-156.3802232 83.49771852-216.96461432 60.71384494-60.71384494 134.11416494-79.48464987 216.96461433-83.49771851 71.45851259-4.01306864 142.26975605-3.3657995 213.59881481-3.36579952 71.45851259 0 142.26975605-0.64726914 213.59881481 3.36579952 82.85044939 4.01306864 156.3802232 22.91332741 216.96461433 83.49771851 60.71384494 60.71384494 79.48464987 134.11416494 83.49771851 216.96461432 4.14252247 71.32905876 3.3657995 142.14030222 3.3657995 213.59881482zM512 118.49020050000001c-146.93009383 0-265.5097995 118.57970569-265.5097995 265.5097995S365.06990617 649.5097995 512 649.5097995 777.5097995 530.93009383 777.5097995 384 658.93009383 118.49020050000001 512 118.49020050000001z m276.38392098 479.88533728c-34.30526419 0-62.0083832 27.70311902-62.0083832 62.0083832s27.70311902 62.0083832 62.0083832 62.00838321 62.0083832-27.70311902 62.00838321-62.00838321c-0.12945383-34.43471803-27.70311902-62.0083832-62.00838321-62.0083832z"  horiz-adv-x="1024" />

    
    <glyph glyph-name="linkedin" unicode="&#61927;" d="M948.90666667 893.72444445H74.86577778C34.816 893.72444445 2.27555555 860.72888889 2.27555555 820.224v-872.448C2.27555555-92.72888889000001 34.816-125.72444444999996 74.86577778-125.72444444999996H948.90666667c40.04977778 0 72.81777778 32.99555555 72.81777778 73.50044445V820.224c0 40.50488889-32.768 73.50044445-72.81777778 73.50044445zM310.38577778 19.91111110999998H159.28888889V506.42488889h151.32444444V19.91111110999998z m-75.54844445 552.96c-48.46933333 0-87.60888889 39.36711111-87.60888888 87.60888889S186.368 748.08888889 234.83733333 748.08888889c48.24177778 0 87.60888889-39.36711111 87.60888889-87.60888889 0-48.46933333-39.13955555-87.60888889-87.60888889-87.60888889z m641.93422222-552.96h-151.09688888V256.56888889000004c0 56.43377778-1.13777778 129.024-78.50666667 129.024-78.73422222 0-90.79466667-61.44-90.79466667-124.928V19.91111110999998h-151.09688888V506.42488889h144.95288888v-66.44622222h2.048c20.25244445 38.22933333 69.632 78.50666667 143.13244445 78.50666666 152.91733333 0 181.36177778-100.80711111 181.36177777-231.87911111V19.91111110999998z"  horiz-adv-x="1024" />

    
    <glyph glyph-name="medium" unicode="&#61935;" d="M2.27555555 893.72444445v-1019.4488889h1019.4488889V893.72444445H2.27555555z m846.96177778-241.43644445l-54.61333333-52.33777778c-4.77866667-3.64088889-7.05422222-9.55733333-6.144-15.24622222v-385.25155555c-0.91022222-5.91644445 1.36533333-11.83288889 6.144-15.24622223l53.47555555-52.33777777v-11.60533334h-268.51555555V131.41333333l55.296 53.70311112c5.46133334 5.46133334 5.46133334 7.05422222 5.46133333 15.24622222V511.88622222l-153.82755555-390.48533333h-20.70755556L286.72 511.88622222v-261.68888889c-1.59288889-10.92266667 2.27555555-22.07288889 10.01244445-30.03733333l71.90755555-87.15377778v-11.60533333H164.2951111v11.60533333l71.90755557 87.15377778c7.73688889 7.96444445 11.15022222 19.11466667 9.32977778 30.03733333v302.64888889c0.91022222 8.41955555-2.27555555 16.61155555-8.64711112 22.30044446L172.94222222 652.288V663.89333333h198.656l153.37244445-336.78222222L659.91111111 663.66577778h189.32622222v-11.37777778z"  horiz-adv-x="1024" />

    
    <glyph glyph-name="npm" unicode="&#61950;" d="M576 320h-64v128h64v-128z m575.99999999 256v-384H576v-64H320v64H0V576h1152.00000001z m-831.99999999-64.00000001H64v-255.99999998h128v191.99999999h64v-191.99999999h64V512.00000001z m319.99999999 0H383.99999999v-319.99999999h128.00000001v64.00000001h128.00000001V512.00000001z m448.00000001 0H704v-255.99999998h128v191.99999999h64.00000001v-191.99999999h63.99999999v191.99999999h64v-191.99999999h64V512.00000001z"  horiz-adv-x="1152" />

    
    <glyph glyph-name="vimeo" unicode="&#62042;" d="M919.77955555 893.72444445H104.22044445C48.01422222 893.72444445 2.27555555 847.98577778 2.27555555 791.7795555499999v-815.5591111C2.27555555-79.98577778000003 48.01422222-125.72444444999996 104.22044445-125.72444444999996h815.5591111c56.20622222 0 101.94488889 45.73866667 101.9448889 101.9448889V791.7795555499999c0 56.20622222-45.73866667 101.94488889-101.9448889 101.9448889zM860.16 555.12177778c-3.18577778-71.68-53.248-169.984-150.18666667-294.45688889-100.12444445-130.16177778-185.00266667-195.24266667-254.17955555-195.24266667-43.008 0-79.18933333 39.59466667-108.99911111 119.01155556-58.02666667 212.30933333-82.83022222 336.78222222-130.61688889 336.78222222-5.46133333 0-24.80355555-11.60533333-57.79911111-34.58844445l-34.58844445 44.6008889c84.87822222 74.63822222 165.888 157.46844445 216.63288889 162.01955555 57.344 5.46133333 92.61511111-33.67822222 105.81333334-117.64622222 47.104-298.55288889 68.03911111-343.60888889 153.82755555-208.44088889 30.72 48.69688889 47.33155555 85.78844445 49.60711111 111.27466666 7.96444445 75.54844445-58.93688889 70.31466667-104.22044444 50.97244445 36.18133333 118.55644445 105.35822222 176.128 207.53066666 172.94222222 75.776-2.048 111.50222222-51.2 107.17866667-147.22844444z"  horiz-adv-x="1024" />

    
    <glyph glyph-name="youtube" unicode="&#62068;" d="M1099.31 647.8340000000001c-12.562 47.30000001-49.574 84.552-96.568 97.19400001C917.56200001 768 576 768 576 768S234.44 768 149.258 745.02800001c-46.994-12.64400001-84.006-49.894-96.568-97.19400001-22.824-85.734-22.824-264.61-22.824-264.61s0-178.87599999 22.824-264.61c12.562-47.30000001 49.574-83 96.568-95.64200001C234.44 0 576 0 576 0s341.56 0 426.742 22.97199999c46.994 12.642 84.006 48.342 96.568 95.64200001 22.824 85.734 22.824 264.61 22.824 264.61s0 178.87599999-22.824 264.61z m-635.02-427.016V545.63l285.478-162.41000001-285.478-162.40199999z"  horiz-adv-x="1152" />

    


  </font>
</defs>
</svg>
